<svg width="80" height="80" viewBox="0 0 80 80" fill="none" xmlns="http://www.w3.org/2000/svg">
  <path d="M36.5835 54.594V18.4665C36.5835 18.4665 36.5835 14.3711 32.4382 14.3711C28.2929 14.3711 28.2929 18.4665 28.2929 18.4665V45.5624C28.2929 45.5624 28.2929 49.658 24.1476 49.658C20.0023 49.658 20.0023 45.5624 20.0023 45.5624V32.7089C20.0023 32.7089 20.0023 28.6135 15.857 28.6135C11.7117 28.6135 11.7117 32.7089 11.7117 32.7089V45.5624C11.7117 45.5624 11.7117 49.658 7.56644 49.658C3.42115 49.658 3.42115 45.5624 3.42115 45.5624V38.7266C3.42115 38.7266 3.42115 34.6312 -0.724136 34.6312C-4.86942 34.6312 -4.86942 38.7266 -4.86942 38.7266V57.3373C-4.86942 57.3373 -4.86942 69.3568 3.42115 75.4016C11.7117 81.4465 18.4398 77.351 24.1475 75.4016C29.8553 73.4522 36.5833 72.8049 45.0393 69.3568C53.4953 65.9087 74.8433 45.5624 74.8433 45.5624C74.8433 45.5624 80.5511 39.5177 74.8433 35.0695C69.1354 30.6212 63.4276 37.3954 63.4276 37.3954L42.0795 56.5641" stroke="currentColor" stroke-width="3"/>
  <path d="M75.7172 22.5333C75.7172 22.5333 76.0982 18.4735 71.984 17.9277C67.8697 17.382 66.7233 21.2971 66.7233 21.2971L58.8908 42.1831" stroke="currentColor" stroke-width="3"/>
</svg>
